<svg width="100%" height="100%" id="svg" viewBox="0 0 1440 390" xmlns="http://www.w3.org/2000/svg"><path d="M 0,400 C 0,400 0,200 0,200 C 52.19158582040234,222.4041608289936 104.38317164080468,244.80832165798725 151,249 C 197.61682835919532,253.19167834201275 238.65889925718363,239.1708741970446 288,242 C 337.34110074281637,244.8291258029554 394.98123133046073,264.50818155383433 439,257 C 483.01876866953927,249.49181844616564 513.4161754209733,214.79639958761794 561,205 C 608.5838245790267,195.20360041238206 673.3540669856459,210.30622009569382 728,207 C 782.6459330143541,203.69377990430618 827.167556636443,181.97872002960688 867,165 C 906.832443363557,148.02127997039312 941.9757064685823,135.7788997858786 991,169 C 1040.0242935314177,202.2211002141214 1102.9296174892277,280.90568082687884 1162,270 C 1221.0703825107723,259.09431917312116 1276.3058235745063,158.598376906606 1322,132 C 1367.6941764254937,105.40162309339398 1403.8470882127467,152.700811546697 1440,200 C 1440,200 1440,400 1440,400 Z" stroke="none" stroke-width="0" fill="rgba(255, 191, 0, 1)" fill-opacity="1" class="path-0" style="transition-property: all; transition-timing-function: cubic-bezier(0.4, 0, 0.2, 1); transition-duration: 300ms; transition-delay: 150ms;"></path></svg>